<svg xmlns="http://www.w3.org/2000/svg" version="1.1" xmlns:xlink="http://www.w3.org/1999/xlink" xmlns:svgjs="http://svgjs.dev/svgjs" width="100%" height="100%" viewBox="0 0 1000 600"><rect width="1000" height="600" x="0" y="0" fill="green"/><g><rect width="333.3333333333333" height="333.3333333333333" rx="13.333333333333334" ry="13.333333333333334" y="275.16913646051427" fill="#7f3636" transform="matrix(0.49417484493694663,0,0,0.49417484493694663,-6.39945960255121,81.65586198099778)" x="278.54827880859375"/><path d="M365.44221756137125 393.843391010299L365.44221756137125 516.8358199919039L338.1694892377632 516.8358199919039L338.1694892377632 393.843391010299L265.8967591802017 393.843391010299L265.8967591802017 366.8358142120593L437.4497960935643 366.8358142120593L437.4497960935643 393.843391010299L365.44221756137125 393.843391010299ZM624.5331366356481 472.66915162339404L624.5331366356481 472.66915162339404Q624.5331366356481 484.9418793690177 618.6619242882048 494.866122175664Q612.8285907300997 504.8282437716486 602.7149539767618 510.8509712764454Q592.6391960127621 516.8358199919039 580.3664682671385 516.8358199919039L580.3664682671385 516.8358199919039L452.9800997222856 516.8358199919039L452.9800997222856 489.5630916682957L580.3664682671385 489.5630916682957Q587.4498018734089 489.5630916682957 592.4876808554088 484.638849054311Q597.5255598374085 479.7524852296645 597.5255598374085 472.66915162339404L597.5255598374085 472.66915162339404Q597.5255598374085 465.5479392277853 592.4876808554088 460.5100602457855Q587.4498018734089 455.4721812637856 580.3664682671385 455.4721812637856L580.3664682671385 455.4721812637856L496.91949535476533 455.4721812637856Q484.9119191345101 455.4721812637856 474.94979753852544 449.4873325483272Q464.9876759425408 443.4646050435304 459.00282722708243 433.38884707953076Q452.9800997222856 423.27521032619273 452.9800997222856 411.00248258056905L452.9800997222856 411.00248258056905Q452.9800997222856 399.03278514965217 459.00282722708243 388.91914839631414Q464.9876759425408 378.8433904323145 474.94979753852544 372.82066292751773Q484.9119191345101 366.8358142120593 496.91949535476533 366.8358142120593L496.91949535476533 366.8358142120593L614.4573786716487 366.8358142120593L614.4573786716487 393.843391010299L496.91949535476533 393.843391010299Q490.1013132738633 393.843391010299 485.0255555025251 398.8812699922988Q479.98767652052527 403.91914897429865 479.98767652052527 411.00248258056905L479.98767652052527 411.00248258056905Q479.98767652052527 418.1236949761779 485.0255555025251 423.1615739581777Q490.1013132738633 428.19945294017754 496.91949535476533 428.19945294017754L496.91949535476533 428.19945294017754L580.3664682671385 428.19945294017754Q592.6391960127621 428.19945294017754 602.7149539767618 434.184301655636Q612.8285907300997 440.2070291604328 618.6619242882048 450.28278712443245Q624.5331366356481 460.3964238777704 624.5331366356481 472.66915162339404Z " fill="red" transform="matrix(0.49417484493694663,0,0,0.49417484493694663,-6.39945960255121,81.65586198099778)"/><path d="M792.5066144370007 388.2643838689316L792.5066144370007 516.8358085478121L771.0780436571874 516.8358085478121L771.0780436571874 388.2643838689316L695.2149507158757 388.2643838689316L695.2149507158757 366.8358130891182L868.3697073783125 366.8358130891182L868.3697073783125 388.2643838689316L792.5066144370007 388.2643838689316ZM907.1494681090026 398.9786692588383L907.1494681090026 516.8358085478121L885.929230656215 516.8358085478121L885.929230656215 398.9786692588383L907.1494681090026 398.9786692588383ZM1062.060177704737 495.19890444097274L1062.060177704737 516.8358085478121L985.9887514363993 516.8358085478121Q969.5006566974873 516.8358085478121 957.0601808836514 508.9191421208255Q944.649466973676 500.97271378997794 937.7744671818192 487.490571341012Q930.9292292938233 473.97866698818524 930.9292292938233 457.49057224927327L930.9292292938233 457.49057224927327Q930.9292292938233 440.97271560650046 937.7744671818192 427.69890648456044Q944.649466973676 414.39533545875963 957.0601808836514 406.478669031773Q969.5006566974873 398.56200260478636 985.9887514363993 398.56200260478636L985.9887514363993 398.56200260478636L1062.060177704737 398.56200260478636L1062.060177704737 420.19890671162574L985.9887514363993 420.19890671162574Q975.7208946044054 420.19890671162574 968.2208948314708 425.2286684641097Q960.7208950585361 430.2584302165937 956.6435142295993 438.6215252014931Q952.5661334006626 446.98462018639253 952.5661334006626 457.49057224927327L952.5661334006626 457.49057224927327Q952.5661334006626 467.96676240829316 956.6435142295993 476.5381907202185Q960.7208950585361 485.1096190321439 968.2208948314708 490.1691426884887Q975.7208946044054 495.19890444097274 985.9887514363993 495.19890444097274L985.9887514363993 495.19890444097274L1062.060177704737 495.19890444097274ZM1224.708982304293 457.69890557629924L1224.708982304293 457.69890557629924Q1224.708982304293 473.97866698818524 1217.9530301278796 487.37152372556864Q1211.226839855327 500.76438046295203 1198.9946973685169 508.80009450538205Q1186.7923167855674 516.8358085478121 1170.5125553736816 516.8358085478121L1170.5125553736816 516.8358085478121L1133.220889836034 516.8358085478121Q1116.9411284241478 516.8358085478121 1104.6197002257554 508.80009450538205Q1092.2982720273626 500.76438046295203 1085.5423198509493 487.37152372556864Q1078.7863676745358 473.97866698818524 1078.7863676745358 457.69890557629924L1078.7863676745358 457.69890557629924Q1078.7863676745358 441.4191441644132 1085.5423198509493 428.1155731386124Q1092.2982720273626 414.8417640166724 1104.6197002257554 406.89533568582493Q1116.9411284241478 398.9786692588383 1133.220889836034 398.9786692588383L1133.220889836034 398.9786692588383L1170.5125553736816 398.9786692588383Q1186.7923167855674 398.9786692588383 1198.9946973685169 406.89533568582493Q1211.226839855327 414.8417640166724 1217.9530301278796 428.1155731386124Q1224.708982304293 441.4191441644132 1224.708982304293 457.69890557629924ZM1203.2804115244794 457.69890557629924L1203.2804115244794 457.69890557629924Q1203.2804115244794 447.40128684044447 1199.4411259264295 438.8298585285191Q1195.5720784245188 430.2584302165937 1188.1911262670276 425.2286684641097Q1180.7804122056755 420.19890671162574 1170.5125553736816 420.19890671162574L1170.5125553736816 420.19890671162574L1133.220889836034 420.19890671162574Q1122.9232711001791 420.19890671162574 1115.5423189426879 425.2286684641097Q1108.131604881336 430.2584302165937 1104.1732716678425 438.8298585285191Q1100.214938454349 447.40128684044447 1100.214938454349 457.69890557629924L1100.214938454349 457.69890557629924Q1100.214938454349 467.96676240829316 1104.1732716678425 476.5381907202185Q1108.131604881336 485.1096190321439 1115.5423189426879 490.2584284000713Q1122.9232711001791 495.40723776799865 1133.220889836034 495.40723776799865L1133.220889836034 495.40723776799865L1170.5125553736816 495.40723776799865Q1180.7804122056755 495.40723776799865 1188.1911262670276 490.2584284000713Q1195.5720784245188 485.1096190321439 1199.4411259264295 476.5381907202185Q1203.2804115244794 467.96676240829316 1203.2804115244794 457.69890557629924ZM1416.7030241106488 473.97866698818524L1416.7030241106488 473.97866698818524Q1416.7030241106488 485.76438091708263 1410.9292147616436 495.5262853834421Q1405.1554054126384 505.25842794594064 1395.5125485617225 511.06199919880675Q1385.8696917108061 516.8358085478121 1373.8458825510222 516.8358085478121L1373.8458825510222 516.8358085478121L1243.5780293520731 516.8358085478121L1243.5780293520731 495.40723776799865L1373.8458825510222 495.40723776799865Q1382.8637394208602 495.40723776799865 1389.0839773277783 489.097714149498Q1395.2744533308355 482.75842862713654 1395.2744533308355 473.97866698818524L1395.2744533308355 473.97866698818524Q1395.2744533308355 465.19890534923394 1389.0839773277783 458.85961982687246Q1382.8637394208602 452.5500962083718 1373.8458825510222 452.5500962083718L1373.8458825510222 452.5500962083718L1286.4351709117 452.5500962083718Q1274.6494569828023 452.5500962083718 1264.887552516443 446.77628685936656Q1255.1554099539444 440.97271560650046 1249.3518387010783 431.2405730440018Q1243.5780293520731 421.4786685776424 1243.5780293520731 409.692954648745L1243.5780293520731 409.692954648745Q1243.5780293520731 397.9072407198476 1249.3518387010783 388.1453362534882Q1255.1554099539444 378.4131936909896 1264.887552516443 372.6096224381235Q1274.6494569828023 366.8358130891182 1286.4351709117 366.8358130891182L1286.4351709117 366.8358130891182L1405.988738720742 366.8358130891182L1405.988738720742 388.2643838689316L1286.4351709117 388.2643838689316Q1277.6554092727486 388.2643838689316 1271.316123750387 394.5739074874322Q1265.0066001318864 400.9131930097937 1265.0066001318864 409.692954648745L1265.0066001318864 409.692954648745Q1265.0066001318864 418.47271628769636 1271.316123750387 424.8120018100578Q1277.6554092727486 431.1215254285584 1286.4351709117 431.1215254285584L1286.4351709117 431.1215254285584L1373.8458825510222 431.1215254285584Q1385.8696917108061 431.1215254285584 1395.5125485617225 436.89533477756373Q1405.1554054126384 442.69890603042984 1410.9292147616436 452.43104859292845Q1416.7030241106488 462.19295305928785 1416.7030241106488 473.97866698818524ZM1578.0720668441884 457.69890557629924L1578.0720668441884 457.69890557629924Q1578.0720668441884 473.97866698818524 1571.3161146677746 487.37152372556864Q1564.5601624913613 500.76438046295203 1552.3577819084123 508.80009450538205Q1540.155401325463 516.8358085478121 1523.845878009716 516.8358085478121L1523.845878009716 516.8358085478121L1486.5839743759295 516.8358085478121Q1470.2744510601824 516.8358085478121 1457.9530228617898 508.80009450538205Q1445.631594663397 500.76438046295203 1438.9054043908443 487.37152372556864Q1432.149452214431 473.97866698818524 1432.149452214431 457.69890557629924L1432.149452214431 457.69890557629924Q1432.149452214431 441.4191441644132 1438.9054043908443 428.1155731386124Q1445.631594663397 414.8417640166724 1457.9530228617898 406.89533568582493Q1470.2744510601824 398.9786692588383 1486.5839743759295 398.9786692588383L1486.5839743759295 398.9786692588383L1523.845878009716 398.9786692588383Q1540.155401325463 398.9786692588383 1552.3577819084123 406.89533568582493Q1564.5601624913613 414.8417640166724 1571.3161146677746 428.1155731386124Q1578.0720668441884 441.4191441644132 1578.0720668441884 457.69890557629924ZM1556.6434960643749 457.69890557629924L1556.6434960643749 457.69890557629924Q1556.6434960643749 447.40128684044447 1552.7744485624642 438.8298585285191Q1548.935162964414 430.2584302165937 1541.524448903062 425.2286684641097Q1534.143496745571 420.19890671162574 1523.845878009716 420.19890671162574L1523.845878009716 420.19890671162574L1486.5839743759295 420.19890671162574Q1476.2863556400746 420.19890671162574 1468.9054034825833 425.2286684641097Q1461.4946894212312 430.2584302165937 1457.536356207738 438.8298585285191Q1453.5780229942445 447.40128684044447 1453.5780229942445 457.69890557629924L1453.5780229942445 457.69890557629924Q1453.5780229942445 467.96676240829316 1457.536356207738 476.5381907202185Q1461.4946894212312 485.1096190321439 1468.9054034825833 490.2584284000713Q1476.2863556400746 495.40723776799865 1486.5839743759295 495.40723776799865L1486.5839743759295 495.40723776799865L1523.845878009716 495.40723776799865Q1534.143496745571 495.40723776799865 1541.524448903062 490.2584284000713Q1548.935162964414 485.1096190321439 1552.7744485624642 476.5381907202185Q1556.6434960643749 467.96676240829316 1556.6434960643749 457.69890557629924ZM1731.49468124688 516.8358085478121L1710.0661104670664 516.8358085478121Q1710.0661104670664 502.6989042139074 1704.6196820605307 489.7227141305759Q1699.143491750134 476.7762859511053 1689.91730155327 465.6155720032859Q1680.7208732602667 454.48461995932723 1669.351825985421 445.46676308948906Q1658.0125406144368 436.4786681235118 1646.1077790700958 430.46676354361966Q1634.2030175257553 424.48462086758843 1623.2803988088224 421.89533523169433L1623.2803988088224 421.89533523169433L1623.2803988088224 516.8358085478121L1601.851828029009 516.8358085478121L1601.851828029009 398.9786692588383L1613.4292086308803 398.9786692588383L1613.4292086308803 399.18700258586426Q1625.0065892327518 399.841764470803 1637.9530174122226 404.21676433834824Q1650.9292074955538 408.62152610975437 1663.9946832904677 416.329859209715Q1677.0601590853819 424.03819230967565 1688.9649206297227 434.3358110455304Q1700.8696821740634 444.6334297813852 1710.0661104670664 457.25247701838646L1710.0661104670664 457.25247701838646L1710.0661104670664 398.9786692588383L1731.49468124688 398.9786692588383L1731.49468124688 516.8358085478121ZM1783.578013003371 398.9786692588383L1783.578013003371 516.8358085478121L1762.3577755505833 516.8358085478121L1762.3577755505833 398.9786692588383L1783.578013003371 398.9786692588383Z " fill="red" transform="matrix(0.49417484493694663,0,0,0.49417484493694663,-6.39945960255121,81.65586198099778)"/></g></svg>