<svg xmlns="http://www.w3.org/2000/svg" version="1.1" xmlns:xlink="http://www.w3.org/1999/xlink" xmlns:svgjs="http://svgjs.dev/svgjs" width="100%" height="100%" viewBox="0 0 1000 600"><rect width="1000" height="600" x="0" y="0" fill="green"/><g><rect width="333.3333333333333" height="333.3333333333333" rx="13.333333333333334" ry="13.333333333333334" y="197.76789149551422" fill="#7f3636" transform="matrix(0.71206547224933,0,0,0.71206547224933,0,40.498729695992736)" x="175.54574584960938"/><path d="M296.5985936713613 435.80011982232656L296.5985936713613 435.80011982232656Q290.90990002039916 435.5788928470114 284.20988305371037 434.4411541168189Q277.47826223340513 433.3034153866265 272.2636263866898 429.8901991960492Q267.017386686358 426.4769830054719 265.18436317660354 420.09300457494766L265.18436317660354 420.09300457494766Q264.9631362012883 418.9552658447552 264.86832464043897 417.1222423350007Q264.74190922597313 415.3208226788627 264.74190922597313 412.3500604389158L264.74190922597313 412.3500604389158Q264.74190922597313 408.02033249346124 264.9631362012883 401.76276947740286Q265.18436317660354 395.50520646134447 265.87964795616557 387.09858139936705L265.87964795616557 387.09858139936705Q268.15512541655045 350.24848808257866 268.59757936718086 337.4805312215302L268.59757936718086 337.4805312215302L264.74190922597313 337.25930424621504Q261.10746606008064 337.03807727089986 261.3286930353958 333.40363410500737L261.3286930353958 333.40363410500737L262.68765874090343 314.5045296423663Q263.1617165451503 311.091313451789 266.5749327357276 311.31254042710424L266.5749327357276 311.31254042710424L270.4306028769353 311.56537125603586L270.4306028769353 309.289893795651Q270.6518298522505 308.3733820407738 270.6518298522505 307.4568702858965Q270.6518298522505 306.54035853101925 270.6518298522505 305.62384677614205L270.6518298522505 305.62384677614205Q270.6518298522505 298.7974143949874 267.45984063698836 292.88749376871004L267.45984063698836 292.88749376871004L267.45984063698836 292.66626679339487Q267.45984063698836 291.30730108788725 268.72399478164664 290.26437391854415Q269.9881489263049 289.25305060281755 271.34711463181253 289.4742775781327L271.34711463181253 289.4742775781327L288.85564953532946 291.52852806320243L311.8316511144934 292.44503981807964Q315.49769813400235 292.44503981807964 315.24486730507067 296.0794829839722L315.24486730507067 296.0794829839722L313.88590159956306 314.5045296423663L319.13214129989484 314.9785874466132Q322.9878114411025 315.4210413972435 322.324130515157 318.8342575878209L322.324130515157 318.8342575878209L320.0486530547721 332.70834932544534Q319.3533682752101 336.34279249133783 312.9693898446858 336.34279249133783L312.9693898446858 336.34279249133783Q311.389197163863 336.34279249133783 309.46136209325914 336.1215655160226Q307.53352702265533 335.9003385407074 305.7005035129008 335.457884590077L305.7005035129008 335.457884590077Q304.7839917580236 344.5597944316165 303.772668442297 353.1876464689092Q302.7297412729539 361.8471023598182 301.8448333716931 370.4749543971109L301.8448333716931 370.4749543971109Q300.454263812569 390.29057061462913 300.454263812569 400.0561613821142L300.454263812569 400.0561613821142Q300.454263812569 403.02692362206113 300.58067922703486 404.954758692665Q300.7070946415007 406.8825937632688 300.9283216168159 407.79910551814606L300.9283216168159 407.79910551814606Q301.37077556744623 408.02033249346124 304.3415378073932 408.36797488324225Q307.28069619372366 408.7156172730233 312.52693589405544 409.1580712236537L312.52693589405544 409.1580712236537Q316.38260603526317 409.63212902790053 315.7189251093175 413.04534521847785L315.7189251093175 413.04534521847785L313.6646746242479 424.6439594957174Q313.88590159956306 425.78169822590985 313.88590159956306 426.91943695610223Q313.88590159956306 428.0571756862947 313.88590159956306 428.97368744117193L313.88590159956306 428.97368744117193Q313.88590159956306 434.1883232878873 310.0302314583554 435.5788928470114L310.0302314583554 435.5788928470114Q309.33494667879336 435.80011982232656 296.5985936713613 435.80011982232656ZM297.04104762199177 428.75246046585676L297.04104762199177 428.75246046585676Q300.9283216168159 428.2784026616099 304.56276478270837 424.0750901306212Q308.19720794860086 419.8717775996324 308.4184349239161 415.9845036048083L308.4184349239161 415.9845036048083Q304.12031083207796 415.5420496541779 301.4971909819121 415.0995957035475Q298.8740711317462 414.6255378993007 297.7363324015538 414.1830839486703L297.7363324015538 414.1830839486703Q293.4066044560992 412.1288334636006 293.88066226034607 404.6071163028839L293.88066226034607 404.6071163028839L295.2396279658537 370.2537274217957L298.8740711317462 331.7918375705681Q299.3165250823766 327.93616742936035 302.7297412729539 328.37862137999076L302.7297412729539 328.37862137999076Q302.9825721018856 328.6314522089224 305.0052187333388 328.94749074508695Q307.0594692184085 329.29513313486797 308.19720794860086 329.29513313486797L308.19720794860086 329.29513313486797Q314.8024133544403 329.29513313486797 315.0236403297555 321.8050198277678L315.0236403297555 321.8050198277678Q314.58118637912514 321.8050198277678 312.7481628693706 322.1210583639324Q310.9467432132326 322.4687007537134 309.55617365410853 322.4687007537134L309.55617365410853 322.4687007537134Q305.47927653758563 322.4687007537134 305.47927653758563 318.8342575878209L305.47927653758563 318.8342575878209Q305.47927653758563 318.13897280825887 305.921730488216 316.33755315212085L305.921730488216 316.33755315212085Q307.28069619372366 311.091313451789 307.28069619372366 307.0144163352661L307.28069619372366 307.0144163352661Q307.28069619372366 298.57618741967224 300.7070946415007 298.57618741967224L300.7070946415007 298.57618741967224L292.96415050546887 298.57618741967224L278.61600096359757 297.21722171416457Q279.75373969379 299.0502452239191 281.01789383844823 300.63043790474194Q282.25044412949006 302.21063058556473 283.1669558843673 303.822427120004L283.1669558843673 303.822427120004L292.0476387505916 311.56537125603586Q296.5985936713613 316.558780127436 296.5985936713613 319.9719963180133L296.5985936713613 319.9719963180133Q296.5985936713613 321.1097350482058 295.3344395267031 323.827666459221Q294.10188923566125 326.57720172385274 290.90990002039916 330.65409884037564L290.90990002039916 330.65409884037564Q284.3046946145597 339.31355473128474 284.3046946145597 342.03148614229997L284.3046946145597 342.03148614229997Q284.3046946145597 344.30696360268485 288.85564953532946 350.69094203320907L288.85564953532946 350.69094203320907Q293.6278314314144 357.5173744143637 293.6278314314144 359.57162489943335L293.6278314314144 359.57162489943335Q293.6278314314144 364.5650337708335 286.5801720749446 364.5650337708335L286.5801720749446 364.5650337708335Q282.5032749584217 364.5650337708335 273.84381906751264 361.1518175802562L273.84381906751264 361.1518175802562L272.70608033732015 380.2721490182124L272.2636263866898 384.38064998835176L272.2636263866898 385.7396156938594Q272.2636263866898 387.3198083746822 272.9273073126354 387.7938661789291L272.9273073126354 387.7938661789291Q273.40136511688223 387.5410353499974 274.286273018143 387.5410353499974L274.286273018143 387.5410353499974Q279.0900587678444 387.5410353499974 282.5980865192711 391.870763295452Q286.13771812431423 396.2004912409065 288.06555319491804 401.66795791655346Q289.9933882655219 407.1354245922005 289.9933882655219 410.76986775809297L289.9933882655219 410.76986775809297Q289.9933882655219 418.038754089878 281.3655362282293 418.038754089878L281.3655362282293 418.038754089878Q276.3405235032127 418.038754089878 271.12588765649735 414.1830839486703L271.12588765649735 414.1830839486703Q272.2636263866898 421.9260280847021 281.5867632035445 426.002925201225L281.5867632035445 426.002925201225Q289.7721612902067 429.8901991960492 297.04104762199177 428.75246046585676ZM375.5450200052698 439.43456298821906L375.5450200052698 439.43456298821906Q370.33038415855447 439.43456298821906 363.377536362934 438.42323967249246Q356.45629242093 437.3803125031494 349.5034446253096 435.2312504572303Q342.55059682968914 433.05058455769483 337.1147340076586 429.321329830953Q331.64726733201167 425.5604712505947 329.3717898716268 420.09300457494766L329.3717898716268 420.09300457494766Q328.67650509206476 418.2599810651932 344.3836203394436 407.57787854283083L344.3836203394436 407.57787854283083Q359.1742238319453 397.5594569464141 361.22847431701496 397.5594569464141L361.22847431701496 397.5594569464141Q361.67092826764537 397.5594569464141 361.89215524296054 397.78068392172935L361.89215524296054 397.78068392172935Q362.8086669978378 399.39248045616864 365.30537143353786 402.5844696714307Q367.8336797228544 405.7448550330764 370.6780265483355 408.4943902977081Q373.52237337381655 411.2123217087234 375.1025660546394 411.2123217087234L375.1025660546394 411.2123217087234Q382.62428321535606 411.2123217087234 382.62428321535606 403.9434353769384L382.62428321535606 403.9434353769384Q382.62428321535606 400.97267313699143 378.5157822452167 396.2004912409065L378.5157822452167 396.2004912409065Q377.3780435150243 394.8415255353989 359.1742238319453 384.12781915942014L359.1742238319453 384.12781915942014Q345.96381302026646 376.4164788770047 340.52795019823594 368.199476936726L340.52795019823594 368.199476936726Q334.1439717677117 358.8763401198713 335.28171049790416 344.7810214069317L335.28171049790416 344.7810214069317Q336.4194492280966 332.26589537481493 341.6656889284284 324.52295123878304Q346.88032477514366 316.7800071027512 358.7317698813149 312.22905218198144L358.7317698813149 312.22905218198144Q363.725178752715 310.4276325258434 369.54028781814304 309.289893795651Q375.3237930299546 308.1521550654586 381.928998435794 308.1521550654586L381.928998435794 308.1521550654586Q389.89316954714104 308.1521550654586 398.5526254380502 310.3012171113776Q407.1804774753428 312.4502791572966 414.0069098564974 317.5701034431626Q420.833342237652 322.68992772902857 423.1088196980369 331.34938361993767L423.1088196980369 331.34938361993767Q420.61211526233683 332.70834932544534 415.6187063909367 335.110242200296Q410.5936936659201 337.4805312215302 405.03141542942376 340.10365107169616Q399.43753333931096 342.72677092186206 394.665351443226 344.5597944316165Q389.89316954714104 346.36121408775455 387.61769208675616 346.36121408775455L387.61769208675616 346.36121408775455Q387.1752381361258 346.36121408775455 386.92240730719413 346.1399871124393L386.92240730719413 346.1399871124393Q383.7620219455485 337.4805312215302 380.7912597056016 337.4805312215302L380.7912597056016 337.4805312215302Q377.59927049033945 337.4805312215302 377.59927049033945 344.08573662736967L377.59927049033945 344.08573662736967Q377.59927049033945 349.55320330301663 380.7912597056016 352.0499077387167L380.7912597056016 352.0499077387167Q384.64692984680926 355.2418969539788 399.43753333931096 362.98484109001066L399.43753333931096 362.98484109001066Q409.93001273997453 368.4523077656577 415.8399333662519 375.72119409744266Q421.74985399252927 382.99008042922765 421.74985399252927 395.50520646134447L421.74985399252927 395.50520646134447Q421.74985399252927 401.19390011230666 419.9168304827748 406.2189128373232L419.9168304827748 406.2189128373232Q414.0069098564974 422.81093598596294 402.5347109937237 431.122749487091Q391.0309082773335 439.43456298821906 375.5450200052698 439.43456298821906ZM393.3063857377184 337.4805312215302L393.3063857377184 337.4805312215302Q393.3063857377184 337.4805312215302 401.04932987375025 332.70834932544534L401.04932987375025 332.70834932544534Q403.98848826008066 330.9069296693073 409.01350098509727 329.5163601101832L409.01350098509727 329.5163601101832Q412.869171126305 328.37862137999076 412.4267171756746 327.7149404540452L412.4267171756746 327.7149404540452Q406.26396572046554 315.863495347874 386.0374994059334 315.863495347874L386.0374994059334 315.863495347874Q376.461531760147 315.863495347874 365.7794292377847 318.6130306125057L365.7794292377847 318.6130306125057Q367.8336797228544 322.026246803083 368.97141845304685 331.7918375705681L368.97141845304685 331.7918375705681Q372.1318038146925 328.6314522089224 377.3780435150243 328.6314522089224L377.3780435150243 328.6314522089224Q381.233713656232 328.6314522089224 384.7733452612751 330.7805142548415Q388.3129768663182 332.9295763007605 391.94742003221074 336.8168502955847L391.94742003221074 336.8168502955847Q392.61110095815627 337.4805312215302 393.3063857377184 337.4805312215302ZM384.89976067574094 391.870763295452L384.89976067574094 391.870763295452Q383.9832489208637 390.06934363931396 383.9832489208637 387.5410353499974L383.9832489208637 387.5410353499974Q383.9832489208637 382.3263995032821 388.3129768663182 378.78676789823896Q392.61110095815627 375.2787401468123 399.91159114355776 375.2787401468123L399.91159114355776 375.2787401468123Q401.27055684906543 375.2787401468123 402.62952255457304 375.37355170766165Q403.98848826008066 375.4999671221275 405.3790578192048 375.72119409744266L405.3790578192048 375.72119409744266Q395.36063622278806 370.72778522604256 385.7846685770017 364.3438067955183Q376.24030478483184 357.9598283649941 367.1383949432924 351.38622681277116L367.1383949432924 351.38622681277116Q360.7544165127681 346.8352718920014 360.31196256213775 344.30696360268485L360.31196256213775 344.30696360268485Q358.7317698813149 344.7810214069317 356.2034615919984 345.34989077202795Q353.7067571562983 345.91876013712414 350.0723139904058 346.36121408775455L350.0723139904058 346.36121408775455Q344.16239336412843 347.0564988673166 344.16239336412843 347.27772584263175L344.16239336412843 347.27772584263175Q343.94116638881326 354.32538519910156 349.6298600397754 354.32538519910156L349.6298600397754 354.32538519910156Q350.7675987699679 354.32538519910156 353.7067571562983 354.1041582237864Q356.6775193962452 353.8829312484712 358.25771207706805 353.8829312484712L358.25771207706805 353.8829312484712Q363.28272480208466 353.8829312484712 368.27613367348476 357.1697320245827Q373.2695425448849 360.4881366543106 373.2695425448849 365.9239994763411L373.2695425448849 365.9239994763411Q373.2695425448849 371.39146615198814 361.22847431701496 377.3013867782655L361.22847431701496 377.3013867782655Q369.192645428362 381.85234169903526 375.1025660546394 385.6132002793936Q381.01248668091677 389.3740588597519 384.89976067574094 391.870763295452ZM376.0190778095166 432.38690363174925L376.0190778095166 432.38690363174925Q393.74883968834877 432.38690363174925 402.40829557925787 425.0864134463478L402.40829557925787 425.0864134463478Q394.665351443226 422.81093598596294 389.197884767579 408.7156172730233L389.197884767579 408.7156172730233Q387.8389190620714 415.5420496541779 378.0733282945863 419.1764928200704L378.0733282945863 419.1764928200704Q375.3237930299546 420.09300457494766 370.8992535236507 421.2307433051401Q366.4431101637303 422.36848203533253 360.5331895374529 423.506220765525L360.5331895374529 423.506220765525Q351.4312796959134 425.0864134463478 351.4312796959134 426.2241521765402L351.4312796959134 426.2241521765402Q351.4312796959134 427.14066393141746 353.9279841316135 428.2784026616099L353.9279841316135 428.2784026616099Q363.28272480208466 432.38690363174925 376.0190778095166 432.38690363174925Z " fill="red" transform="matrix(0.71206547224933,0,0,0.71206547224933,0,40.498729695992736)"/><path d="M640.426693841318 433.55659672677143L640.426693841318 433.55659672677143Q639.1866144668527 433.55659672677143 633.3830429943548 433.18457291443184Q627.5794715218572 432.8373506895815 617.5596301761773 432.49012846473124L617.5596301761773 432.49012846473124Q613.814590465292 432.2917157648168 611.5824475912543 431.3244538527339Q609.3503047172167 430.3323903531616 609.3503047172167 425.8681046050864L609.3503047172167 425.8681046050864Q609.3503047172167 425.3472712678109 609.449511067174 424.18159665581356Q609.5239158296419 423.0159220438161 609.7223285295563 421.230207744586L609.7223285295563 421.230207744586Q609.8959396419815 417.11314422136115 610.342368216789 410.7887394115879Q610.7887967915965 404.43953301432543 611.5080428287864 396.2302075553649L611.5080428287864 396.2302075553649Q612.7481222032518 379.61314393752946 613.095344428102 371.2302073661439L613.095344428102 371.2302073661439Q613.2937571280165 367.65877876768366 613.814590465292 363.91373905679836Q614.3602253900567 360.16869934591307 616.1459396892867 356.94449297230324L616.1459396892867 356.94449297230324Q606.8453443807967 357.6637390094931 595.2382014358013 358.55659615910815L595.2382014358013 358.55659615910815Q592.2124077621058 358.382985046683 592.2124077621058 352.65381833665316L592.2124077621058 352.65381833665316Q592.2124077621058 346.23020717692276 592.9316537992956 337.57445314315476Q593.6508998364857 328.9186991093867 594.7173680985259 318.2044133140062L594.7173680985259 318.2044133140062Q595.6102252481409 314.43457201563166 599.181653846601 314.6329847155461L599.181653846601 314.6329847155461Q602.579471332636 314.80659582797125 607.663796767944 315.4266355152039Q612.7481222032518 316.0466752024366 619.7173682877469 317.11314346447676L619.7173682877469 317.11314346447676Q626.4882016723276 318.2044133140062 631.5973286951248 318.8244530012389Q636.6816541304327 319.4444926884716 640.0794716164677 319.6181038008967L640.0794716164677 319.6181038008967Q641.4931621033581 319.6181038008967 642.931654177738 319.71731015085396Q644.3453446646283 319.79171491332187 646.1310589638584 319.79171491332187L646.1310589638584 319.79171491332187Q648.6360193002785 319.79171491332187 651.6866145614631 319.71731015085396Q654.7124082351586 319.6181038008967 658.1102257211936 319.4444926884716L658.1102257211936 319.4444926884716Q661.6816543196537 319.2708815760464 664.7074479933492 319.17167522608923Q667.7580432545338 319.0972704636213 670.0645908910394 319.0972704636213L670.0645908910394 319.0972704636213Q671.8503051902694 319.0972704636213 673.2887972646492 319.17167522608923Q674.7024877515397 319.2708815760464 675.9673687134944 319.2708815760464L675.9673687134944 319.2708815760464Q682.9366147979895 319.6181038008967 682.3909798732248 327.3065959225818L682.3909798732248 327.3065959225818L680.7788766864198 357.2917151971535Q680.4316544615696 362.30163586999345 676.3145909383446 362.30163586999345L676.3145909383446 362.30163586999345Q674.7024877515397 362.30163586999345 671.5030829654193 361.5823898328035Q668.2788765918093 360.86314379561367 665.0794718056887 360.16869934591307Q661.8552654320788 359.4494533087232 660.0695511328488 359.4494533087232L660.0695511328488 359.4494533087232Q656.845344759239 359.4494533087232 656.3245114219635 369.6181041793389L656.3245114219635 369.6181041793389Q656.1509003095383 373.0159216653739 656.1509003095383 376.41373915140895Q656.1509003095383 379.8115566374439 656.1509003095383 383.38298523590413L656.1509003095383 383.38298523590413Q655.7788764971988 388.1944932088296 653.2739161607788 388.0208820964044L653.2739161607788 388.0208820964044Q652.2074478987386 388.0208820964044 652.2074478987386 383.90381857317954L652.2074478987386 383.90381857317954Q652.2074478987386 381.22524712433443 652.4802653611209 378.37306456306413Q652.7530828235033 375.5208820017939 653.1003050483537 372.8423105529488L653.1003050483537 372.8423105529488L653.1003050483537 368.5516359172987Q646.5030827761981 371.403818478569 642.931654177738 371.2302073661439L642.931654177738 371.2302073661439Q637.0288763552829 370.6845724413791 634.0774874440555 367.75798511764094Q631.1509001203173 364.8065962064134 630.158836620745 360.243104108381Q629.1667731211728 355.70441359783786 628.8195508963224 350.6944929249979L628.8195508963224 350.6944929249979Q628.4723286714722 346.0565960644976 624.0080429233969 345.3373500273077L624.0080429233969 345.3373500273077Q623.288796886207 345.1637389148826 621.4038762370197 344.99012780245744Q619.5437571753217 344.791715102543 616.3195508017119 344.61810399011785L616.3195508017119 344.61810399011785Q608.6310586800269 344.2708817652675 600.2481221086412 338.1944928303874L600.2481221086412 338.1944928303874L600.2481221086412 343.20441350322733Q600.2481221086412 344.4444928776927 599.4544713089833 346.7758421016875Q598.6360189218362 349.082389738193 598.6360189218362 350.1488580002332L598.6360189218362 350.1488580002332Q598.6360189218362 351.2401278497627 600.2481221086412 351.58735007461297L600.2481221086412 351.58735007461297Q601.686614183021 351.58735007461297 605.0596300815666 351.41373896218784Q608.4574475676017 351.2401278497627 612.0288761660618 351.04171514984824Q615.600304764522 350.8681040374231 617.7580428760916 350.8681040374231L617.7580428760916 350.8681040374231Q622.7431619614423 350.8681040374231 622.9167730738675 356.2252469351133L622.9167730738675 356.2252469351133Q622.222328624167 356.94449297230324 619.890979400172 356.94449297230324L619.890979400172 356.94449297230324Q619.7173682877469 358.9038183839584 619.2709397129394 361.85520729518595Q618.8245111381318 364.8065962064134 618.4524873257923 368.72524702972385L618.4524873257923 368.72524702972385Q620.0645905125972 369.44449306691376 622.395939736592 371.67663594095137Q624.7024873730975 373.908778814989 627.5794715218572 377.8274296382994L627.5794715218572 377.8274296382994Q628.9931620087475 379.8115566374439 635.2431620560528 383.38298523590413L635.2431620560528 383.38298523590413Q637.7481223924729 384.7966757227946 639.4346303417457 386.95441383436423Q641.1459398785078 389.0873503584446 642.212408140548 391.59231069486464L642.212408140548 391.59231069486464Q642.931654177738 393.20441388166955 642.5596303653983 395.51096151817507L642.5596303653983 395.51096151817507Q642.3860192529731 396.57742978021525 642.212408140548 397.6686996297447Q642.0387970281229 398.7351678917849 642.0387970281229 399.8016361538251L642.0387970281229 399.8016361538251Q642.0387970281229 401.5873504530552 643.0060589402058 404.7123504767078Q643.9981224397782 407.83735050036046 643.9981224397782 409.79667591201564L643.9981224397782 409.79667591201564Q643.9981224397782 418.8988585205912 635.416773168478 425.5208823802361L635.416773168478 425.5208823802361Q637.2024874677081 425.6944934926612 638.6409795420878 425.6944934926612Q640.0794716164677 425.6944934926612 641.1459398785078 425.6944934926612L641.1459398785078 425.6944934926612Q648.4624081878533 425.6944934926612 650.0745113746582 421.7758426693508L650.0745113746582 421.7758426693508Q650.4217335995086 420.68457281982126 651.3145907491236 404.811556826665L651.3145907491236 404.811556826665Q651.3145907491236 403.91869967705 651.7610193239311 401.5873504530552Q652.2074478987386 399.25600122906036 652.9266939359285 397.2222710549372Q653.6459399731184 395.16373929332474 654.3651860103082 395.16373929332474L654.3651860103082 395.16373929332474Q655.6052653847736 396.2302075553649 655.6052653847736 400.69449330344014L655.6052653847736 400.69449330344014Q655.6052653847736 403.1994536398601 655.0596304600089 407.83735050036046L655.0596304600089 407.83735050036046Q654.8860193475837 410.3423108367804 654.8116145851158 411.58239021124575Q654.7124082351586 412.8472711732004 654.7124082351586 413.02088228562553L654.7124082351586 413.02088228562553Q654.7124082351586 414.9802076972808 654.8116145851158 418.4524299457837Q654.8860193475837 421.9494537817759 655.0596304600089 425.3472712678109Q655.2580431599233 428.7202871663567 655.0596304600089 430.7044141655012L655.0596304600089 430.7044141655012Q654.8860193475837 433.55659672677143 640.426693841318 433.55659672677143ZM702.0338371647556 325.69449273577686L702.0338371647556 325.69449273577686Q699.9009006406752 325.69449273577686 698.2887974538703 324.97524669858694L698.2887974538703 324.97524669858694Q680.6052655739948 316.9395323520516 681.671733836035 305.50600051948123L681.671733836035 305.50600051948123Q683.1102259104147 291.5923099379802 689.8810592949953 290.3274289760256L689.8810592949953 290.3274289760256Q690.6003053321853 290.15381786360047 691.3195513693752 290.0794131011325Q692.0387974065651 289.9802067511753 692.7580434437549 289.9802067511753L692.7580434437549 289.9802067511753Q693.4524878934556 289.9802067511753 694.1717339306455 290.0794131011325Q694.8909799678353 290.15381786360047 695.6102260050252 290.3274289760256L695.6102260050252 290.3274289760256Q696.5030831546403 289.43457182641055 698.1151863414452 289.43457182641055L698.1151863414452 289.43457182641055Q700.0745117531004 289.43457182641055 703.273916539221 290.52584167594L703.273916539221 290.52584167594Q710.069551511291 292.83238931244557 713.9882023346014 297.9167147477534Q717.9316547454011 303.0258417705506 717.9316547454011 310.34231007989604L717.9316547454011 310.34231007989604Q717.9316547454011 314.80659582797125 715.4266944089812 317.3115561643912L715.4266944089812 317.3115561643912Q711.5080435856707 321.23020698770165 708.1846308621037 323.46234986173926Q704.8860197260259 325.69449273577686 702.0338371647556 325.69449273577686ZM701.4882022399909 320.51096095051173L701.4882022399909 320.51096095051173Q706.3245118004057 321.0565958752765 709.7967340489087 317.55957203928426Q713.2937578849009 314.08734979078133 713.2937578849009 309.27584181785585L713.2937578849009 309.27584181785585Q713.2937578849009 306.59727036901074 711.7560594605638 303.4722703453581Q710.2431626237161 300.3472703217055 707.8374086372534 297.9167147477534Q705.4316546507906 295.5109607612907 702.7530832019455 295.3373496488655L702.7530832019455 295.3373496488655Q701.3145911275658 295.5109607612907 699.3552657159105 295.6101671112479Q697.3959403042553 295.6845718737158 694.8909799678353 295.5109607612907L694.8909799678353 295.5109607612907Q692.5596307438404 296.4038179109057 688.8145910329551 298.3631433225609L688.8145910329551 298.3631433225609Q689.7074481825703 298.01592109771065 690.7739164446104 298.01592109771065Q691.8651862941399 298.01592109771065 693.1052656686053 298.01592109771065L693.1052656686053 298.01592109771065Q693.9981228182203 298.01592109771065 694.9901863177926 298.01592109771065Q695.9574482298755 298.01592109771065 697.0239164919157 298.1895322101358L697.0239164919157 298.1895322101358Q700.5953450903759 298.5615560224754 703.273916539221 301.24012747132053Q705.9524879880661 303.91869892016564 705.9524879880661 307.66373863105093L705.9524879880661 307.66373863105093Q705.9524879880661 308.90381800551626 705.3324483008334 310.7887386547036Q704.7124086136007 312.64885771640155 703.1003054267958 315.5258418651611L703.1003054267958 315.5258418651611Q701.8602260523305 317.8323895016667 701.4882022399909 320.51096095051173ZM685.6151862468346 438.02088247484664L685.243162434495 438.02088247484664Q683.1102259104147 438.02088247484664 682.7382020980751 435.34231102600154L682.7382020980751 435.34231102600154Q682.7382020980751 434.0774300640469 684.7223290972196 431.8452871900093Q686.6816545088748 429.6131443159717 686.6816545088748 428.5466760539315L686.6816545088748 428.5466760539315Q686.5080433964497 388.0208820964044 686.13601958411 382.4901280862891L686.13601958411 382.4901280862891Q685.962408471685 378.9186994878289 685.5159798968774 371.32941371610104Q685.0695513220699 363.7401279443732 684.1766941724549 352.3065961118029L684.1766941724549 352.3065961118029Q684.1766941724549 351.2401278497627 683.2838370228399 349.18159608815023Q682.3909798732248 347.1230643265378 681.4981227236098 344.99012780245744Q680.6052655739948 342.83238969088774 680.4316544615696 341.4186992039973L680.4316544615696 341.4186992039973Q680.4316544615696 340.15381824204263 681.2253052612274 339.2609610924276Q682.0437576483745 338.3681039428125 683.1102259104147 338.3681039428125L683.1102259104147 338.3681039428125Q690.253083107335 338.7401277551521 694.1717339306455 338.9881436300452Q698.1151863414452 339.2609610924276 699.0080434910602 339.2609610924276L699.0080434910602 339.2609610924276Q699.9009006406752 339.2609610924276 704.0923689263681 338.7401277551521Q708.2838372120609 338.1944928303874 715.6003055214063 337.3016356807724L715.6003055214063 337.3016356807724Q716.6667737834465 337.3016356807724 717.5596309330616 338.02088171796225Q718.4524880826766 338.7401277551521 718.4524880826766 339.9802071296175L718.4524880826766 339.9802071296175Q718.4524880826766 342.6587785784626 718.5516944326339 346.4038182893479Q718.6509007825911 350.1488580002332 718.8245118950163 355.15877867307313L718.8245118950163 355.15877867307313Q718.9981230074414 360.5159215707634 719.1717341198665 364.2609612816487Q719.3453452322916 368.006000992534 719.3453452322916 369.9901279916785L719.3453452322916 369.9901279916785Q719.3453452322916 371.57742959099414 718.1052658578263 374.6280248521789Q716.8651864833611 377.65381852587427 716.8651864833611 379.4395328251044L716.8651864833611 379.4395328251044Q717.0387975957861 381.0516360119093 718.7253055450591 383.90381857317954Q720.4366150818212 386.75600113444983 720.6102261942464 388.3681043212547L720.6102261942464 388.3681043212547Q720.9574484190966 401.76096156548033 721.6766944562864 428.02584271665603L721.6766944562864 428.02584271665603L725.5953452795969 433.9038189516217Q725.7937579795114 434.0774300640469 725.7937579795114 434.4494538763865L725.7937579795114 434.4494538763865Q725.7937579795114 436.95441421280645 722.9167738307518 436.756001512892L722.9167738307518 436.756001512892Q720.4366150818212 436.4087792880417 717.832448395444 436.4087792880417Q715.253083296556 436.4087792880417 712.5745118477109 436.4087792880417L712.5745118477109 436.4087792880417Q700.0745117531004 436.4087792880417 685.6151862468346 438.02088247484664L685.6151862468346 438.02088247484664ZM710.2431626237161 382.4901280862891L710.2431626237161 382.4901280862891Q710.2431626237161 381.39885823675957 710.2431626237161 380.15877886229424Q710.2431626237161 378.9186994878289 710.4167737361413 377.65381852587427L710.4167737361413 377.65381852587427L713.0953451849864 343.0060008033129Q698.8096307911458 347.66869925130254 697.7431625291056 347.4702865513881L697.7431625291056 347.4702865513881Q692.9316545561801 346.57742940177303 692.9316545561801 352.3065961118029L692.9316545561801 352.3065961118029Q692.9316545561801 354.26592152345813 693.65090059337 355.70441359783786L693.65090059337 355.70441359783786Q696.1310593423007 360.68953268318853 696.9495117294477 365.3274295436889Q697.7431625291056 369.9901279916785 697.7431625291056 373.908778814989L697.7431625291056 373.908778814989Q698.1151863414452 374.6280248521789 703.1003054267958 377.1329851885988L703.1003054267958 377.1329851885988Q707.7382022872962 379.4395328251044 710.2431626237161 382.4901280862891ZM699.5288768283357 432.11810465239165L699.5288768283357 432.11810465239165Q703.6459403515605 432.11810465239165 705.2580435383655 430.50600146558673Q706.8453451376812 428.91869986627114 708.4574483244861 425.3472712678109L708.4574483244861 425.3472712678109Q709.8959403988658 422.1230648942011 716.1459404461712 422.47028711905136L716.1459404461712 422.47028711905136L716.1459404461712 416.93953310893596Q716.1459404461712 410.6895330616307 715.6995118713636 404.53873936428266Q715.253083296556 398.3631440794453 713.0953451849864 392.65877895690477L713.0953451849864 392.65877895690477Q712.4009007352859 401.93457267790546 705.2580435383655 401.93457267790546L705.2580435383655 401.93457267790546Q703.6459403515605 401.93457267790546 700.7937577902903 401.41373934063006Q697.9167736415308 400.8681044158653 696.8503053794906 400.8681044158653L696.8503053794906 400.8681044158653Q696.1310593423007 400.8681044158653 695.4366148926001 401.24012822820487L695.4366148926001 401.24012822820487L693.1052656686053 423.1895331562413Q692.2124085189902 432.11810465239165 699.5288768283357 432.11810465239165ZM773.4624091339588 439.4345729617371L773.4624091339588 439.4345729617371Q763.293758263343 439.4345729617371 753.1995121551952 434.35024752642926Q743.1052660470474 429.2659220911214 736.681654887317 421.0565966321609L736.681654887317 421.0565966321609Q727.5794722787415 409.4494536871654 727.5794722787415 388.0208820964044L727.5794722787415 388.0208820964044Q727.5794722787415 366.22028669330393 740.7739168230527 352.480207224228L740.7739168230527 352.480207224228Q755.9524883665082 336.7560007560076 773.4624091339588 336.7560007560076L773.4624091339588 336.7560007560076Q795.7838378743347 336.7560007560076 810.9624094177904 358.18457234676856L810.9624094177904 358.18457234676856Q811.3096316426407 358.55659615910815 811.3096316426407 359.0774294963836L811.3096316426407 359.0774294963836Q811.3096316426407 361.40877872037845 798.636020435605 369.79171529176404L798.636020435605 369.79171529176404L792.9316553130644 375.1488581894543Q789.3602267146043 378.5466756754893 785.4167743038046 378.72028678791446L785.4167743038046 378.72028678791446Q784.5239171541895 378.72028678791446 780.9524885557294 374.6280248521789L780.9524885557294 374.6280248521789Q777.3810599572691 370.51096132895395 773.4624091339588 370.51096132895395L773.4624091339588 370.51096132895395Q769.3453456107338 370.51096132895395 766.6667741618887 373.36314389022425Q763.9882027130436 376.24012803898376 762.7481233385782 380.25798521225147Q761.508043964113 384.2758423855191 761.508043964113 387.8472709839793L761.508043964113 387.8472709839793Q761.508043964113 391.7659218072897 762.4753058761959 395.78377898055743Q763.4673693757682 399.8016361538251 766.0467344746561 402.5794139526274Q768.6509011610333 405.3323901639405 773.4624091339588 405.3323901639405L773.4624091339588 405.3323901639405Q777.7530837696088 405.3323901639405 781.1509012556438 400.520882191015L781.1509012556438 400.520882191015Q784.1766949293392 396.2302075553649 785.615187003719 396.77584248012965L785.615187003719 396.77584248012965Q787.5745124153742 398.01592185459504 790.6995124390269 400.0744536162075Q793.8245124626795 402.1329853778199 798.2887982107546 404.61314412675057L798.2887982107546 404.61314412675057Q802.03383792164 406.3988584259807 805.7788776325253 408.1845727252107Q809.5239173434106 409.97028702444084 811.9544729173628 411.4087790988206Q814.3602269038254 412.8472711732004 813.8145919790607 413.9137394352406L813.8145919790607 413.9137394352406Q807.7382030441805 427.13298556704103 797.1231235987573 433.28377926438907Q786.508044153334 439.4345729617371 773.4624091339588 439.4345729617371ZM760.4167741145835 431.2252475027766L760.4167741145835 431.2252475027766Q761.1360201517733 431.2252475027766 762.2024884138135 429.81155701588614L762.2024884138135 429.81155701588614Q763.0953455634286 428.7202871663567 763.7401868381505 427.4802077918913Q764.3602265253832 426.240128417426 765.0794725625731 424.97524745547133L765.0794725625731 424.97524745547133Q761.1360201517733 423.90877919343114 757.8374090156956 421.230207744586Q754.5387978796178 418.55163629574093 750.9673692811576 415.1538188097059L750.9673692811576 415.1538188097059Q749.9009010191174 414.0873505476657 749.9009010191174 412.4752473608608L749.9009010191174 412.4752473608608Q749.9009010191174 411.2351679863955 750.7937581687326 408.4573901875931Q751.6866153183475 405.7044139762801 751.4882026184331 404.2659219019003L751.4882026184331 404.2659219019003Q751.4882026184331 402.6538187150954 746.1310597207429 402.48020760267025L746.1310597207429 402.48020760267025Q742.2124088974324 402.30659649024506 740.7739168230527 400.520882191015Q739.3602263361621 398.7351678917849 739.3602263361621 395.33735040574993L739.3602263361621 395.33735040574993Q739.3602263361621 387.8472709839793 748.1151867198873 383.38298523590413L748.1151867198873 383.38298523590413Q750.4217343563929 382.4901280862891 752.6538772304305 381.39885823675957Q754.8860201044681 380.3323899747194 757.217369328463 379.2659217126792L757.217369328463 379.2659217126792Q761.8552661889632 364.8065962064134 773.4624091339588 364.8065962064134L773.4624091339588 364.8065962064134Q787.7481235277994 364.8065962064134 787.7481235277994 357.6637390094931L787.7481235277994 357.6637390094931Q787.7481235277994 354.81155644822286 785.3423695413367 351.2401278497627Q782.9366155548739 347.66869925130254 779.6132028313068 344.99012780245744Q776.3145916952291 342.31155635361233 773.4624091339588 342.31155635361233L773.4624091339588 342.31155635361233Q769.3453456107338 342.31155635361233 766.4931630494635 344.61810399011785Q763.6409804881933 346.9494532141126 761.681655076538 350.34727070014765Q759.7223296648829 353.72028659869335 758.110226478078 357.1181040847284L758.110226478078 357.1181040847284Q754.7124089920429 364.6329850939883 752.2074486556229 368.006000992534L752.2074486556229 368.006000992534Q750.9673692811576 369.6181041793389 748.2887978323125 369.6181041793389L748.2887978323125 369.6181041793389Q747.7431629075478 369.6181041793389 747.0239168703579 369.543699416871Q746.3294724206573 369.44449306691376 745.4366152710422 369.27088195448863L745.4366152710422 369.27088195448863Q744.3453454215128 368.89885814214904 743.4524882718978 368.89885814214904Q742.5596311222827 368.89885814214904 741.6667739726677 368.89885814214904L741.6667739726677 368.89885814214904Q739.5338374485873 368.89885814214904 738.2937580741219 369.6181041793389L738.2937580741219 369.6181041793389Q736.681654887317 370.6845724413791 735.5159802753196 374.35520738979653Q734.3503056633222 378.02584233821386 733.7302659760895 382.0436995114816Q733.1102262888568 386.06155668474923 733.1102262888568 388.0208820964044L733.1102262888568 388.0208820964044Q733.1102262888568 402.8274298275205 740.7739168230527 414.0873505476657Q748.4624089447376 425.3472712678109 759.895940777308 431.05163639035146L759.895940777308 431.05163639035146Q760.0695518897331 431.05163639035146 760.1687582396904 431.1508427403087Q760.2431630021583 431.2252475027766 760.4167741145835 431.2252475027766ZM789.8810600518798 430.50600146558673L789.8810600518798 430.50600146558673Q791.1459410138344 430.50600146558673 793.2788775379148 428.7202871663567Q795.4366156494845 426.9345728671266 797.5695521735648 424.52881888066383Q799.7024886976452 422.1230648942011 801.2401871219822 419.79171567020626Q802.7530839588298 417.48516803370075 802.7530839588298 416.41869977166056L802.7530839588298 416.41869977166056Q802.7530839588298 414.9802076972808 800.5209410847923 413.0952870480935Q798.2887982107546 411.2351679863955 795.23820294957 409.4494536871654Q792.2124092758746 407.6637393879353 789.4346314770722 406.4980647759379Q786.6816552657592 405.3323901639405 785.4167743038046 405.3323901639405L785.4167743038046 405.3323901639405Q785.2431631913794 411.7560013236709 782.7382028549595 414.26096166009086L782.7382028549595 414.26096166009086Q782.5645917425343 414.43457277251605 780.7044726808363 415.6002473845134Q778.819552031649 416.7659219965108 775.2481234331889 418.72524740816607L775.2481234331889 418.72524740816607Q780.6052663308791 418.72524740816607 783.4574488921493 423.1895331562413L783.4574488921493 423.1895331562413Q784.3503060417644 424.4544141181959 784.8959409665291 425.6944934926612Q785.4167743038046 426.9345728671266 786.1360203409944 428.37306494150636L786.1360203409944 428.37306494150636Q788.0953457526497 430.50600146558673 789.8810600518798 430.50600146558673ZM861.1360209086578 439.4345729617371L861.1360209086578 439.4345729617371Q846.6766954023919 439.4345729617371 832.3909810085513 429.6131443159717L832.3909810085513 429.6131443159717Q814.3602269038254 417.48516803370075 814.3602269038254 389.43457258329494L814.3602269038254 389.43457258329494Q814.3602269038254 379.61314393752946 817.8324491523283 370.51096132895395Q821.3294729883206 361.40877872037845 827.5794730356258 354.16671517350085Q833.8294730829311 346.9494532141126 842.4852271166991 342.75798492841983Q851.1409811504672 338.5417150552377 861.3096320210828 338.5417150552377L861.3096320210828 338.5417150552377Q875.793759114838 338.5417150552377 885.2431639482637 344.7173103400751Q894.7173703691789 350.8681040374231 901.1409815289093 363.1944930196085L901.1409815289093 363.1944930196085Q903.9931640901797 368.5516359172987 905.5060609270273 374.7024296146468Q907.0437593513643 380.8780248994841 907.0437593513643 388.0208820964044L907.0437593513643 388.0208820964044Q907.0437593513643 401.5873504530552 901.686616453674 413.36810451047586Q896.3294735559839 425.14885856789647 886.0616163354109 432.2917157648168Q875.793759114838 439.4345729617371 861.1360209086578 439.4345729617371ZM861.1360209086578 433.9038189516217L861.1360209086578 433.9038189516217Q858.8294732721522 429.9851681283113 858.8294732721522 423.90877919343114L858.8294732721522 423.90877919343114Q858.8294732721522 415.69945373447064 863.988203469928 411.0615568739703L863.988203469928 411.0615568739703Q863.095346320313 410.8631441740559 862.4009018706123 410.8631441740559Q861.6816558334225 410.8631441740559 861.1360209086578 410.8631441740559L861.1360209086578 410.8631441740559Q856.150901823307 410.8631441740559 852.1330446500393 407.6637393879353Q848.1151874767718 404.43953301432543 845.783838252777 399.18159646659245Q843.452489028782 393.8988583313701 843.452489028782 387.8472709839793L843.452489028782 387.8472709839793Q843.452489028782 387.1280249467894 841.8651874294665 386.3095725596423Q840.2530842426615 385.5159217599845 838.4673699434314 384.5238582604122Q836.6816556442014 383.55659634832926 836.1360207194367 382.4901280862891L836.1360207194367 382.4901280862891Q835.6151873821613 381.0516360119093 835.6151873821613 379.09231060025405L835.6151873821613 379.09231060025405Q835.6151873821613 372.8423105529488 839.1866159806214 367.11314384291893L839.1866159806214 367.11314384291893Q841.1459413922765 364.08735016922355 848.6360208140471 364.08735016922355L848.6360208140471 364.08735016922355Q850.4217351132774 364.08735016922355 853.0259017996544 364.2609612816487Q855.6052668985424 364.4345723940738 858.0110208850051 364.6329850939883Q860.4167748714679 364.8065962064134 861.1360209086578 364.8065962064134L861.1360209086578 364.8065962064134Q868.8245130303428 364.8065962064134 873.8096321156935 371.94945340333373L873.8096321156935 371.94945340333373Q873.4624098908431 366.76592161806866 873.1895924284607 361.5079850703356Q872.9167749660784 356.2252469351133 872.5695527412281 351.04171514984824L872.5695527412281 351.04171514984824Q871.3294733667627 344.0972706528424 861.3096320210828 344.0972706528424L861.3096320210828 344.0972706528424Q855.4316557861172 344.0972706528424 850.967370038042 348.0159214761528Q846.5030842899668 351.9345722994633 842.0387985418917 356.0516358226882L842.0387985418917 356.0516358226882Q836.6816556442014 361.0615564955281 833.0110206957839 364.3601676316059Q829.3651873348559 367.65877876768366 827.9266952604761 369.6181041793389L827.9266952604761 369.6181041793389Q820.7838380635558 378.72028678791446 820.7838380635558 388.0208820964044L820.7838380635558 388.0208820964044Q820.7838380635558 390.52584243282445 822.0239174380212 394.09727103128455Q823.2887983999758 397.6686996297447 825.248123811631 401.0417155282904Q827.2074492232863 404.43953301432543 829.3651873348559 406.3988584259807L829.3651873348559 406.3988584259807Q830.4316555968961 407.29171557559573 831.9445524337438 408.28377907516796Q833.4574492705915 409.27584257474024 835.4167746822467 409.97028702444084L835.4167746822467 409.97028702444084Q841.8651874294665 412.30163624843567 841.8651874294665 418.55163629574093L841.8651874294665 418.55163629574093Q841.8651874294665 419.444493445356 841.5923699670841 421.1310013946288Q841.3195525047017 422.842310931391 841.3195525047017 423.5615569685809L841.3195525047017 423.5615569685809Q841.3195525047017 426.240128417426 843.6509017286966 428.1994538290812Q845.957449365202 430.1587792407364 849.2560605012799 431.3988586152018Q852.579473224847 432.66373957715643 855.8780843609247 433.28377926438907Q859.1766954970025 433.9038189516217 861.1360209086578 433.9038189516217ZM861.1360209086578 405.3323901639405L861.1360209086578 405.3323901639405Q865.7739177691581 405.3323901639405 869.4445527175754 400.4216758410578Q873.1151876659928 395.51096151817507 873.1151876659928 387.8472709839793L873.1151876659928 387.8472709839793Q873.1151876659928 384.2758423855191 871.8503067040382 380.25798521225147Q870.6102273295729 376.24012803898376 868.0060606431956 373.36314389022425Q865.4266955443078 370.51096132895395 861.1360209086578 370.51096132895395L861.1360209086578 370.51096132895395Q857.0437589729221 370.51096132895395 854.365187524077 373.36314389022425Q851.6866160752319 376.24012803898376 850.4217351132774 380.25798521225147Q849.1816557388119 384.2758423855191 849.1816557388119 387.8472709839793L849.1816557388119 387.8472709839793Q849.1816557388119 395.51096151817507 852.82748909974 400.4216758410578Q856.4981240481574 405.3323901639405 861.1360209086578 405.3323901639405ZM887.4009020598334 422.47028711905136L887.4009020598334 422.47028711905136Q887.5745131722587 422.47028711905136 887.9217353971089 422.1230648942011L887.9217353971089 422.1230648942011Q901.4882037537596 408.5565965375503 901.4882037537596 388.0208820964044L901.4882037537596 388.0208820964044Q901.4882037537596 387.6488582840649 901.1409815289093 387.6488582840649L901.1409815289093 387.6488582840649Q901.1409815289093 387.6488582840649 895.9574497436442 390.8730646576747L895.9574497436442 390.8730646576747Q890.600306845954 394.27088214370974 887.0288782474939 394.27088214370974L887.0288782474939 394.27088214370974Q882.0437591621431 394.27088214370974 878.6459416761082 388.74012813359434L878.6459416761082 388.74012813359434Q878.8195527885333 391.7659218072897 879.0923702509157 394.8909218309424Q879.365187713298 398.01592185459504 879.365187713298 401.0417155282904L879.365187713298 401.0417155282904Q879.365187713298 406.05163620113035 878.2739178637686 408.5565965375503L878.2739178637686 408.5565965375503Q882.0437591621431 410.51592194920556 884.3503067986487 416.41869977166056L884.3503067986487 416.41869977166056Q886.6816560226436 422.47028711905136 887.4009020598334 422.47028711905136ZM957.3909819546568 436.23516817561654L957.3909819546568 436.23516817561654Q955.059632730662 436.23516817561654 949.9009025328862 435.6895332508518Q944.7173707476211 435.16869991357635 938.2937595878907 434.17663641400407Q931.8453468406709 433.18457291443184 925.7937594932802 431.8452871900093Q919.7173705584 430.50600146558673 915.5259022727072 428.7202871663567Q911.3096323995251 426.9345728671266 910.4167752499101 424.97524745547133L910.4167752499101 424.97524745547133Q909.8959419126346 423.5615569685809 909.8959419126346 422.47028711905136L909.8959419126346 422.47028711905136Q909.8959419126346 422.1230648942011 915.2530848103248 412.4752473608608L915.2530848103248 412.4752473608608Q920.610227708015 403.025842527435 920.610227708015 398.7351678917849L920.610227708015 398.7351678917849Q920.610227708015 398.01592185459504 920.0645927832503 396.4038186677901Q919.5437594459748 394.79171548098515 919.5437594459748 393.8988583313701L919.5437594459748 393.8988583313701Q919.5437594459748 392.3115567320545 920.9574499328654 390.77385830771743Q922.3959420072451 389.26096147086974 924.0080451940502 389.26096147086974L924.0080451940502 389.26096147086974Q925.2481245685154 389.26096147086974 928.8195531669755 392.65877895690477L928.8195531669755 392.65877895690477Q933.2838389150508 396.77584248012965 938.9882040375912 399.70242980386786Q944.7173707476211 402.6538187150954 950.9673707949263 402.6538187150954L950.9673707949263 402.6538187150954Q959.7223311786516 402.6538187150954 959.7223311786516 398.18953296702017L959.7223311786516 398.18953296702017Q959.7223311786516 396.2302075553649 957.3909819546568 394.9901281808996Q955.059632730662 393.72524721894496 955.059632730662 393.3780249940947L955.059632730662 393.3780249940947Q955.059632730662 392.11314403214004 958.1102279918467 392.11314403214004L958.1102279918467 392.11314403214004Q960.0695534035019 392.11314403214004 961.855267702732 394.1716757937525Q963.640982001962 396.2302075553649 963.640982001962 398.18953296702017L963.640982001962 398.18953296702017Q963.640982001962 401.76096156548033 959.6231248286944 404.3651282518575Q955.6052676554267 406.9444933507454 951.8602279445414 406.9444933507454L951.8602279445414 406.9444933507454Q940.426696111971 406.9444933507454 926.1409817181304 397.12306470498L926.1409817181304 397.12306470498Q925.9673706057052 397.4702869298303 924.8016959937079 400.520882191015Q923.6360213817105 403.54667586471044 921.329473745205 409.27584257474024L921.329473745205 409.27584257474024Q917.9316562591699 417.832390258551 917.9316562591699 420.8829855197357L917.9316562591699 420.8829855197357Q917.9316562591699 423.5615569685809 920.2382038956754 424.25600141828147L920.2382038956754 424.25600141828147Q926.3145928305556 418.72524740816607 935.243164326706 418.72524740816607L935.243164326706 418.72524740816607Q937.2024897383612 418.72524740816607 940.8731246867786 419.2708823329308Q944.543759635196 419.79171567020626 946.3294739344261 419.79171567020626L946.3294739344261 419.79171567020626Q951.6866168321163 419.79171567020626 957.7382041795071 415.1538188097059L957.7382041795071 415.1538188097059Q963.4673708895369 410.51592194920556 974.1816566849174 410.51592194920556L974.1816566849174 410.51592194920556Q982.7382043687281 410.51592194920556 982.7382043687281 401.93457267790546L982.7382043687281 401.93457267790546Q982.7382043687281 400.69449330344014 982.564593256303 398.01592185459504Q982.3909821438779 395.33735040574993 982.3909821438779 393.8988583313701L982.3909821438779 393.8988583313701Q982.3909821438779 384.07742968560467 992.758045714408 379.2659217126792L992.758045714408 379.2659217126792Q989.7074504532233 374.6280248521789 982.7382043687281 371.94945340333373L982.7382043687281 371.94945340333373Q982.7382043687281 376.24012803898376 979.8116170449899 378.64588202544655Q976.8602281337625 381.0516360119093 972.5695534981124 381.0516360119093L972.5695534981124 381.0516360119093Q971.1310614237327 381.0516360119093 968.2788788624624 380.3323899747194Q965.4266963011922 379.61314393752946 964.1866169267267 379.61314393752946L964.1866169267267 379.61314393752946Q961.1360216655422 379.61314393752946 958.2838391042718 384.07742968560467L958.2838391042718 384.07742968560467Q955.4316565430016 388.5417154336799 952.0338390569665 388.5417154336799L952.0338390569665 388.5417154336799Q948.2887993460812 388.5417154336799 945.8830453596186 385.962350334792Q943.4524897856664 383.38298523590413 943.4524897856664 379.61314393752946L943.4524897856664 379.61314393752946Q943.4524897856664 375.8681042266442 947.5695533088914 373.36314389022425L947.5695533088914 373.36314389022425Q951.3145930197767 370.88298514129355 952.7530850941564 365.69945335602847L952.7530850941564 365.69945335602847L954.5387993933865 363.36810413203364Q953.1003073190067 360.16869934591307 953.1003073190067 358.382985046683L953.1003073190067 358.382985046683Q953.1003073190067 349.4544135505326 965.7739185260424 349.4544135505326L965.7739185260424 349.4544135505326Q975.0745138345324 349.4544135505326 982.9366170686427 355.15877867307313L982.9366170686427 355.15877867307313Q983.2838392934929 354.09231041103294 984.350307555533 352.57941357418525Q985.4167758175732 351.04171514984824 986.8552678919531 349.2560008506182L986.8552678919531 349.2560008506182Q980.2580456197975 344.791715102543 980.2580456197975 338.02088171796225L980.2580456197975 338.02088171796225Q980.2580456197975 334.27584200707696 983.8294742182576 329.6131435590873L983.8294742182576 329.6131435590873Q980.778878957073 328.72028640947224 977.5794741709525 328.1002467222396Q974.3552677973425 327.4802070350069 971.1310614237327 327.3065959225818L971.1310614237327 327.3065959225818Q968.1052677500373 335.168699156692 959.0030851414617 338.9137388675773L959.0030851414617 338.9137388675773Q954.166775581047 340.8730642792325 951.3145930197767 342.83238969088774Q948.4624104585064 344.791715102543 947.3959421964662 346.57742940177303L947.3959421964662 346.57742940177303Q947.0239183841267 347.29667543896295 946.6766961592763 349.35520720057536Q946.3294739344261 351.41373896218784 945.9574501220865 354.985167560648L945.9574501220865 354.985167560648Q945.436616784811 360.16869934591307 940.9723310367357 362.4008422199507Q936.5080452886606 364.6329850939883 931.8453468406709 364.6329850939883L931.8453468406709 364.6329850939883Q924.900902343665 364.6329850939883 920.0645927832503 359.0774294963836L920.0645927832503 359.0774294963836Q919.8909816708251 360.34231045833826 919.7917753208679 361.40877872037845Q919.7173705584 362.4752469824186 919.7173705584 363.54171524445877L919.7173705584 363.54171524445877Q919.7173705584 369.9901279916785 921.8503070824804 374.18159627737134Q924.0080451940502 378.37306456306413 927.9266960173605 381.32445347429166Q931.8453468406709 384.2758423855191 936.855267513511 387.1280249467894L936.855267513511 387.1280249467894Q938.2937595878907 387.8472709839793 940.8731246867786 388.6409217836371Q943.4524897856664 389.43457258329494 946.0566564720436 390.0794138580169Q948.6360215709316 390.6994535452496 949.9009025328862 391.220286882525L949.9009025328862 391.220286882525Q950.7937596825012 391.59231069486464 950.7937596825012 391.9395329197149L950.7937596825012 391.9395329197149Q950.7937596825012 393.0060011817551 947.0239183841267 393.0060011817551L947.0239183841267 393.0060011817551Q938.8145929251662 393.0060011817551 931.3245135033956 389.0873503584446Q923.8096324941356 385.1686995351342 919.0973308711673 378.37306456306413Q914.3602276607097 371.57742959099414 914.3602276607097 363.02088190718337L914.3602276607097 363.02088190718337Q914.3602276607097 349.8016357753829 921.1310610452905 340.07941347957467Q927.9266960173605 330.3323895962772 938.8145929251662 324.97524669858694Q949.7024898329718 319.6181038008967 962.2024899275822 319.6181038008967L962.2024899275822 319.6181038008967Q964.1866169267267 319.6181038008967 968.72530743727 320.3373498380866Q973.2887995353022 321.0565958752765 978.9187598953749 322.39588159969907Q984.5239186679582 323.7351673241216 989.8066568031805 325.4216752733945Q995.0645933509135 327.13298481015664 998.4624108369486 329.0923102218119Q1001.8602283229836 331.0516356334671 1001.8602283229836 333.0109610451223L1001.8602283229836 333.0109610451223Q1001.8602283229836 334.4494531195021 999.3552679865636 338.02088171796225L999.3552679865636 338.02088171796225Q997.7431647997587 340.32742935446777 996.7759028876757 341.4931039664652Q995.7838393881035 342.6587785784626 995.7838393881035 342.83238969088774L995.7838393881035 342.83238969088774Q993.9981250888735 345.68457225215803 992.9316568268333 349.52881831300056Q991.865188564793 353.3730643738431 990.972331415178 358.0109612343434L990.972331415178 358.0109612343434Q990.2530853779881 362.4752469824186 987.0288790043783 362.4752469824186L987.0288790043783 362.4752469824186Q983.457450405918 362.4752469824186 982.3909821438779 358.0109612343434L982.3909821438779 358.0109612343434Q975.9673709841475 354.81155644822286 967.758045525187 354.81155644822286L967.758045525187 354.81155644822286Q959.0030851414617 354.81155644822286 959.0030851414617 356.94449297230324L959.0030851414617 356.94449297230324Q959.0030851414617 358.55659615910815 966.6667756756575 361.40877872037845L966.6667756756575 361.40877872037845Q971.1310614237327 363.02088190718337 975.6945535217651 364.53377874403105Q980.2580456197975 366.04667558087874 984.7223313678727 367.4851676552586L984.7223313678727 367.4851676552586Q994.7173711260633 371.403818478569 999.7024902114139 377.3810010634919Q1004.7124108842539 383.38298523590413 1004.7124108842539 394.61810436856L1004.7124108842539 394.61810436856Q1004.7124108842539 408.3829854251252 998.1895933745662 417.6587791461259Q991.6667758648786 426.9345728671266 980.9524900694981 431.59727131511625Q970.2382042741176 436.23516817561654 957.3909819546568 436.23516817561654ZM1053.273919188316 439.4345729617371L1053.273919188316 439.4345729617371Q1038.8145936820506 439.4345729617371 1024.5288792882097 429.6131443159717L1024.5288792882097 429.6131443159717Q1006.4981251834839 417.48516803370075 1006.4981251834839 389.43457258329494L1006.4981251834839 389.43457258329494Q1006.4981251834839 379.61314393752946 1009.9703474319869 370.51096132895395Q1013.4673712679792 361.40877872037845 1019.7173713152844 354.16671517350085Q1025.9673713625898 346.9494532141126 1034.6231253963579 342.75798492841983Q1043.2788794301257 338.5417150552377 1053.4723318882307 338.5417150552377L1053.4723318882307 338.5417150552377Q1067.9316573944966 338.5417150552377 1077.3810622279225 344.7173103400751Q1086.8552686488374 350.8681040374231 1093.278879808568 363.1944930196085L1093.278879808568 363.1944930196085Q1096.1310623698382 368.5516359172987 1097.6687607941753 374.7024296146468Q1099.181657631023 380.8780248994841 1099.181657631023 388.0208820964044L1099.181657631023 388.0208820964044Q1099.181657631023 401.5873504530552 1093.8245147333328 413.36810451047586Q1088.4673718356423 425.14885856789647 1078.1995146150693 432.2917157648168Q1067.9316573944966 439.4345729617371 1053.273919188316 439.4345729617371ZM1053.273919188316 433.9038189516217L1053.273919188316 433.9038189516217Q1050.9673715518106 429.9851681283113 1050.9673715518106 423.90877919343114L1050.9673715518106 423.90877919343114Q1050.9673715518106 415.69945373447064 1056.1509033370758 411.0615568739703L1056.1509033370758 411.0615568739703Q1055.2580461874609 410.8631441740559 1054.538800150271 410.8631441740559Q1053.8195541130808 410.8631441740559 1053.273919188316 410.8631441740559L1053.273919188316 410.8631441740559Q1048.2888001029655 410.8631441740559 1044.2709429296979 407.6637393879353Q1040.2530857564302 404.43953301432543 1037.9217365324353 399.18159646659245Q1035.6151888959298 393.8988583313701 1035.6151888959298 387.8472709839793L1035.6151888959298 387.8472709839793Q1035.6151888959298 387.1280249467894 1034.0030857091251 386.3095725596423Q1032.39098252232 385.5159217599845 1030.60526822309 384.5238582604122Q1028.81955392386 383.55659634832926 1028.2739189990953 382.4901280862891L1028.2739189990953 382.4901280862891Q1027.7530856618196 381.0516360119093 1027.7530856618196 379.09231060025405L1027.7530856618196 379.09231060025405Q1027.7530856618196 372.8423105529488 1031.32451426028 367.11314384291893L1031.32451426028 367.11314384291893Q1033.283839671935 364.08735016922355 1040.7739190937057 364.08735016922355L1040.7739190937057 364.08735016922355Q1042.5596333929357 364.08735016922355 1045.163800079313 364.2609612816487Q1047.7431651782008 364.4345723940738 1050.1489191646638 364.6329850939883Q1052.5794747386158 364.8065962064134 1053.273919188316 364.8065962064134L1053.273919188316 364.8065962064134Q1060.9624113100012 364.8065962064134 1065.9723319828413 371.94945340333373L1065.9723319828413 371.94945340333373Q1065.6003081705016 366.76592161806866 1065.3274907081193 361.5079850703356Q1065.0794748332264 356.2252469351133 1064.7074510208868 351.04171514984824L1064.7074510208868 351.04171514984824Q1063.4673716464213 344.0972706528424 1053.4723318882307 344.0972706528424L1053.4723318882307 344.0972706528424Q1047.5695540657757 344.0972706528424 1043.1052683177004 348.0159214761528Q1038.6409825696255 351.9345722994633 1034.1766968215502 356.0516358226882L1034.1766968215502 356.0516358226882Q1028.81955392386 361.0615564955281 1025.1489189754425 364.3601676316059Q1021.5030856145144 367.65877876768366 1020.0645935401348 369.6181041793389L1020.0645935401348 369.6181041793389Q1012.9217363432143 378.72028678791446 1012.9217363432143 388.0208820964044L1012.9217363432143 388.0208820964044Q1012.9217363432143 390.52584243282445 1014.186617305169 394.09727103128455Q1015.4266966796343 397.6686996297447 1017.3860220912895 401.0417155282904Q1019.3453475029447 404.43953301432543 1021.5030856145144 406.3988584259807L1021.5030856145144 406.3988584259807Q1022.5695538765546 407.29171557559573 1024.0824507134025 408.28377907516796Q1025.5953475502502 409.27584257474024 1027.5794745493945 409.97028702444084L1027.5794745493945 409.97028702444084Q1034.0030857091251 412.30163624843567 1034.0030857091251 418.55163629574093L1034.0030857091251 418.55163629574093Q1034.0030857091251 419.444493445356 1033.7302682467425 421.1310013946288Q1033.4574507843604 422.842310931391 1033.4574507843604 423.5615569685809L1033.4574507843604 423.5615569685809Q1033.4574507843604 426.240128417426 1035.7888000083549 428.1994538290812Q1038.0953476448608 430.1587792407364 1041.4187603684277 431.3988586152018Q1044.7173715045055 432.66373957715643 1048.0159826405834 433.28377926438907Q1051.314593776661 433.9038189516217 1053.273919188316 433.9038189516217ZM1053.273919188316 405.3323901639405L1053.273919188316 405.3323901639405Q1057.936617636306 405.3323901639405 1061.582450997234 400.4216758410578Q1065.2530859456515 395.51096151817507 1065.2530859456515 387.8472709839793L1065.2530859456515 387.8472709839793Q1065.2530859456515 384.2758423855191 1063.9882049836967 380.25798521225147Q1062.7481256092315 376.24012803898376 1060.1687605103434 373.36314389022425Q1057.5645938239663 370.51096132895395 1053.273919188316 370.51096132895395L1053.273919188316 370.51096132895395Q1049.1816572525809 370.51096132895395 1046.5030858037355 373.36314389022425Q1043.8245143548904 376.24012803898376 1042.5596333929357 380.25798521225147Q1041.3195540184706 384.2758423855191 1041.3195540184706 387.8472709839793L1041.3195540184706 387.8472709839793Q1041.3195540184706 395.51096151817507 1044.990188966888 400.4216758410578Q1048.6360223278161 405.3323901639405 1053.273919188316 405.3323901639405ZM1079.538800339492 422.47028711905136L1079.538800339492 422.47028711905136Q1079.712411451917 422.47028711905136 1080.0596336767676 422.1230648942011L1080.0596336767676 422.1230648942011Q1093.6509036209075 408.5565965375503 1093.6509036209075 388.0208820964044L1093.6509036209075 388.0208820964044Q1093.6509036209075 387.6488582840649 1093.278879808568 387.6488582840649L1093.278879808568 387.6488582840649Q1093.278879808568 387.6488582840649 1088.095348023303 390.8730646576747L1088.095348023303 390.8730646576747Q1082.7382051256127 394.27088214370974 1079.1667765271523 394.27088214370974L1079.1667765271523 394.27088214370974Q1074.1816574418017 394.27088214370974 1070.7838399557668 388.74012813359434L1070.7838399557668 388.74012813359434Q1070.9574510681919 391.7659218072897 1071.2302685305742 394.8909218309424Q1071.5030859929566 398.01592185459504 1071.5030859929566 401.0417155282904L1071.5030859929566 401.0417155282904Q1071.5030859929566 406.05163620113035 1070.4366177309166 408.5565965375503L1070.4366177309166 408.5565965375503Q1074.1816574418017 410.51592194920556 1076.4882050783071 416.41869977166056L1076.4882050783071 416.41869977166056Q1078.819554302302 422.47028711905136 1079.538800339492 422.47028711905136ZM1107.0437608651332 439.26096184931197L1106.8453481652186 439.26096184931197Q1105.6052687907531 439.26096184931197 1104.5388005287132 438.3681046996969Q1103.4723322666728 437.4752475500819 1103.9931656039485 436.756001512892L1103.9931656039485 436.756001512892Q1106.4981259403683 433.7302078391966 1107.3909830899834 431.3244538527339Q1108.2838402395982 428.91869986627114 1108.4574513520233 427.6538189043165L1108.4574513520233 427.6538189043165Q1108.2838402395982 428.1994538290812 1108.2838402395982 425.3472712678109Q1108.2838402395982 422.47028711905136 1108.1102291271732 416.41869977166056L1108.1102291271732 416.41869977166056L1107.3909830899834 386.06155668474923L1104.7124116411383 353.72028659869335L1100.0745147806379 342.6587785784626Q1099.7024909682982 341.9395325412727 1099.7024909682982 341.5923103164224L1099.7024909682982 341.5923103164224Q1099.7024909682982 340.32742935446777 1101.140983042678 340.32742935446777L1101.140983042678 340.32742935446777Q1112.2024910629088 340.5258420543822 1117.559633960599 340.5258420543822Q1122.9167768582893 340.5258420543822 1122.2223324085887 340.69945316680736L1122.2223324085887 340.69945316680736Q1126.140983231899 340.32742935446777 1130.1588404051668 339.18655632995967Q1134.1766975784344 338.02088171796225 1134.8959436156244 338.02088171796225L1134.8959436156244 338.02088171796225Q1136.5080468024294 338.02088171796225 1137.20249125213 340.69945316680736Q1137.92173728932 343.3780246156525 1138.194554751702 346.4038182893479Q1138.4673722140847 349.4544135505326 1138.4673722140847 350.8681040374231L1138.4673722140847 350.8681040374231Q1137.4009039520442 352.8274294490783 1135.7888007652396 352.8274294490783L1135.7888007652396 352.8274294490783Q1133.2838404288195 352.8274294490783 1133.2838404288195 349.4544135505326L1133.2838404288195 349.4544135505326L1133.2838404288195 343.7252468405028L1121.850308596249 345.68457225215803Q1118.8245149225536 345.51096113973284 1116.4931656985589 347.4702865513881Q1114.1866180620534 349.4544135505326 1114.1866180620534 352.480207224228L1114.1866180620534 352.480207224228Q1114.1866180620534 355.87802471026305 1117.7580466605134 359.4494533087232L1117.7580466605134 359.4494533087232Q1124.3552689326693 366.04667558087874 1124.3552689326693 370.3373502165288L1124.3552689326693 370.3373502165288Q1124.3552689326693 374.97524707702917 1118.2788799977889 377.65381852587427L1118.2788799977889 377.65381852587427Q1115.0794752116685 377.8274296382994 1111.309633913294 379.2659217126792L1111.309633913294 379.2659217126792L1112.0288799504838 397.12306470498Q1121.850308596249 401.5873504530552 1121.850308596249 414.80659658485564L1121.850308596249 414.80659658485564Q1121.850308596249 425.6944934926612 1114.5338402869038 433.3829856143463L1114.5338402869038 433.3829856143463L1128.9931657931693 428.02584271665603Q1133.2838404288195 430.1587792407364 1134.0030864660093 430.1587792407364L1134.0030864660093 430.1587792407364Q1136.5080468024294 430.1587792407364 1136.5080468024294 424.8016363430462L1136.5080468024294 424.8016363430462Q1136.5080468024294 423.90877919343114 1136.408840452472 422.7431045814337Q1136.3096341025148 421.5774299694363 1136.1360229900897 420.1637394825459L1136.1360229900897 420.1637394825459L1129.7124118303593 406.3988584259807Q1128.6459435683191 403.91869967705 1128.1995149935115 400.69449330344014Q1127.7530864187042 397.4702869298303 1127.7530864187042 393.5516361065198L1127.7530864187042 393.5516361065198Q1127.7530864187042 391.41869958243944 1127.8274911811718 388.81453289606225Q1127.9266975311293 386.23516779717437 1127.9266975311293 383.0109614235645L1127.9266975311293 383.0109614235645Q1127.9266975311293 378.9186994878289 1128.8195546807442 374.90084231456126Q1129.7124118303593 370.88298514129355 1132.043761054354 366.9395327304938L1132.043761054354 366.9395327304938Q1133.4574515412446 364.4345723940738 1134.7223325031991 362.6488580948437Q1135.9624118776646 360.86314379561367 1137.20249125213 360.16869934591307L1137.20249125213 360.16869934591307Q1138.6409833265097 359.2758421962981 1141.1459436629298 358.9038183839584L1141.1459436629298 358.9038183839584Q1142.0388008125447 358.7302072715333 1142.9316579621598 358.7302072715333Q1143.8245151117749 358.7302072715333 1144.5437611489647 358.7302072715333L1144.5437611489647 358.7302072715333Q1146.50308656062 358.7302072715333 1148.1895945098927 358.9038183839584Q1149.900904046655 359.0774294963836 1151.4882056459705 359.2758421962981L1151.4882056459705 359.2758421962981Q1150.967372308695 356.77088185987805 1150.967372308695 354.6131437483084L1150.967372308695 354.6131437483084Q1150.967372308695 350.34727070014765 1153.6459437575402 346.0565960644976L1153.6459437575402 346.0565960644976L1156.1509040939602 341.76592142884755Q1156.1509040939602 340.69945316680736 1153.6459437575402 341.0466753916577L1153.6459437575402 341.0466753916577Q1149.900904046655 341.2202865040828 1147.2967373602778 342.1131436536978Q1144.7173722613898 343.0060008033129 1142.7580468497345 346.9494532141126L1142.7580468497345 346.9494532141126L1142.55963414982 347.29667543896295Q1142.0388008125447 347.29667543896295 1141.8651897001196 344.99012780245744L1141.8651897001196 344.99012780245744Q1141.8651897001196 342.6587785784626 1142.3860230373948 342.1131436536978L1142.3860230373948 342.1131436536978Q1145.2382055986654 339.2609610924276 1147.7431659350852 337.4752467931975Q1150.2481262715053 335.6895324939674 1153.2739199452008 335.5159213815423L1153.2739199452008 335.5159213815423Q1167.5596343390412 334.97028645677756 1173.115189936646 344.61810399011785L1173.115189936646 344.61810399011785Q1177.2074518723816 351.9345722994633 1177.2074518723816 366.9395327304938L1177.2074518723816 366.9395327304938L1177.2074518723816 382.6637391987142L1179.5388010963763 411.4087790988206Q1179.8860233212267 415.8730648468958 1180.2580471335664 418.55163629574093Q1180.6052693584165 421.230207744586 1180.9524915832667 421.9494537817759L1180.9524915832667 421.9494537817759L1185.7888011436817 428.37306494150636Q1186.5080471808715 429.2659220911214 1186.6816582932968 430.05957289077924Q1186.8552694057216 430.8780252779263 1186.8552694057216 431.59727131511625L1186.8552694057216 431.59727131511625Q1186.8552694057216 434.6230649888116 1172.9167772367314 434.6230649888116L1172.9167772367314 434.6230649888116L1149.3552691218902 434.7966761012368Q1146.676697673045 434.7966761012368 1146.329475448195 432.11810465239165L1146.329475448195 432.11810465239165L1143.4524912994352 375.69449311421903Q1142.9316579621598 366.22028669330393 1142.21241192497 364.6329850939883L1142.21241192497 364.6329850939883Q1142.0388008125447 364.4345723940738 1141.3195547753548 364.4345723940738L1141.3195547753548 364.4345723940738Q1141.1459436629298 364.6329850939883 1140.8731262005472 364.6329850939883Q1140.6003087381648 364.6329850939883 1140.42669762574 364.8065962064134L1140.42669762574 364.8065962064134Q1140.0794754008894 365.3274295436889 1140.0794754008894 369.27088195448863L1140.0794754008894 369.27088195448863Q1140.0794754008894 370.6845724413791 1140.0794754008894 372.74310420299156Q1140.0794754008894 374.801635964604 1140.2530865133147 377.306596301024L1140.2530865133147 377.306596301024L1143.2788801870101 434.6230649888116Q1143.2788801870101 435.6895332508518 1142.4852293873523 436.6815967504241Q1141.666777000205 437.648858662507 1140.6003087381648 437.4752475500819L1140.6003087381648 437.4752475500819Q1134.0030864660093 437.1280253252316 1130.1588404051668 437.02881897527436Q1126.3145943443242 436.95441421280645 1125.4217371947093 437.1280253252316L1125.4217371947093 437.1280253252316Q1124.5288800450942 437.1280253252316 1119.990189534551 437.7480650124643Q1115.4266974365187 438.3681046996969 1107.0437608651332 439.26096184931197L1107.0437608651332 439.26096184931197ZM1156.4981263188106 430.50600146558673L1156.4981263188106 430.50600146558673L1168.998126413421 430.50600146558673Q1167.9316581513808 423.1895331562413 1167.9316581513808 419.79171567020626L1167.9316581513808 419.79171567020626Q1167.9316581513808 415.69945373447064 1169.717372450611 415.69945373447064L1169.717372450611 415.69945373447064L1170.610229600226 415.69945373447064Q1171.1310629375014 415.8730648468958 1171.5030867498408 415.8730648468958L1171.5030867498408 415.8730648468958Q1173.6360232739214 415.8730648468958 1173.8096343863467 411.0615568739703L1173.8096343863467 411.0615568739703L1174.3552693111114 400.8681044158653L1171.676697862266 367.11314384291893Q1169.3453486382714 369.0972708420635 1166.6667771894263 369.9901279916785L1166.6667771894263 369.9901279916785Q1166.8651898893406 370.6845724413791 1166.8651898893406 371.403818478569Q1166.8651898893406 372.12306451575887 1166.8651898893406 373.0159216653739L1166.8651898893406 373.0159216653739Q1166.8651898893406 383.55659634832926 1150.79376119627 409.62306479959057L1150.79376119627 409.62306479959057Q1151.1409834211204 413.74012832281545 1151.686618345885 417.7579854960831Q1152.2074516831603 421.7758426693508 1152.5794754955 425.8681046050864L1152.5794754955 425.8681046050864Q1153.472332645115 429.9851681283113 1156.4981263188106 430.50600146558673ZM1205.059634622873 325.69449273577686L1205.059634622873 325.69449273577686Q1202.9266980987927 325.69449273577686 1201.3145949119876 324.97524669858694L1201.3145949119876 324.97524669858694Q1183.6310630321118 316.9395323520516 1184.7223328816413 305.50600051948123L1184.7223328816413 305.50600051948123Q1186.1360233685318 291.5923099379802 1192.9316583406019 290.3274289760256L1192.9316583406019 290.3274289760256Q1193.650904377792 290.15381786360047 1194.3453488274924 290.0794131011325Q1195.0645948646825 289.9802067511753 1195.7838409018723 289.9802067511753L1195.7838409018723 289.9802067511753Q1196.503086939062 289.9802067511753 1197.222332976252 290.0794131011325Q1197.9167774259527 290.15381786360047 1198.6360234631425 290.3274289760256L1198.6360234631425 290.3274289760256Q1199.5288806127576 289.43457182641055 1201.1409837995625 289.43457182641055L1201.1409837995625 289.43457182641055Q1203.1003092112178 289.43457182641055 1206.3245155848276 290.52584167594L1206.3245155848276 290.52584167594Q1213.0953489694084 292.83238931244557 1217.038801380208 297.9167147477534Q1220.9574522035186 303.0258417705506 1220.9574522035186 310.34231007989604L1220.9574522035186 310.34231007989604Q1220.9574522035186 314.80659582797125 1218.4524918670986 317.3115561643912L1218.4524918670986 317.3115561643912Q1214.533841043788 321.23020698770165 1211.2352299077102 323.46234986173926Q1207.9366187716323 325.69449273577686 1205.059634622873 325.69449273577686ZM1204.5388012855974 320.51096095051173L1204.5388012855974 320.51096095051173Q1209.3503092585229 321.0565958752765 1212.8473330945153 317.55957203928426Q1216.3195553430182 314.08734979078133 1216.3195553430182 309.27584181785585L1216.3195553430182 309.27584181785585Q1216.3195553430182 306.59727036901074 1214.8066585061706 303.4722703453581Q1213.293761669323 300.3472703217055 1210.8632060953705 297.9167147477534Q1208.457452108908 295.5109607612907 1205.778880660063 295.3373496488655L1205.778880660063 295.3373496488655Q1204.3651901731723 295.5109607612907 1202.381063174028 295.6101671112479Q1200.4217377623727 295.6845718737158 1197.9167774259527 295.5109607612907L1197.9167774259527 295.5109607612907Q1195.6102297894472 296.4038179109057 1191.8651900785617 298.3631433225609L1191.8651900785617 298.3631433225609Q1192.7580472281768 298.01592109771065 1193.824515490217 298.01592109771065Q1194.8909837522572 298.01592109771065 1196.1310631267224 298.01592109771065L1196.1310631267224 298.01592109771065Q1197.0239202763373 298.01592109771065 1198.0159837759097 298.01592109771065Q1199.008047275482 298.01592109771065 1200.074515537522 298.1895322101358L1200.074515537522 298.1895322101358Q1203.6459441359825 298.5615560224754 1206.3245155848276 301.24012747132053Q1209.0030870336727 303.91869892016564 1209.0030870336727 307.66373863105093L1209.0030870336727 307.66373863105093Q1209.0030870336727 308.90381800551626 1208.38304734644 310.7887386547036Q1207.7382060717182 312.64885771640155 1206.1509044724025 315.5258418651611L1206.1509044724025 315.5258418651611Q1204.886023510448 317.8323895016667 1204.5388012855974 320.51096095051173ZM1188.6409837049519 438.02088247484664L1188.2937614801017 438.02088247484664Q1186.1360233685318 438.02088247484664 1185.7888011436817 435.34231102600154L1185.7888011436817 435.34231102600154Q1185.7888011436817 434.0774300640469 1187.7481265553367 431.8452871900093Q1189.707451966992 429.6131443159717 1189.707451966992 428.5466760539315L1189.707451966992 428.5466760539315Q1189.5338408545667 388.0208820964044 1189.1866186297166 382.4901280862891L1189.1866186297166 382.4901280862891Q1188.988205929802 378.9186994878289 1188.5417773549948 371.32941371610104Q1188.0953487801871 363.7401279443732 1187.2024916305722 352.3065961118029L1187.2024916305722 352.3065961118029Q1187.2024916305722 351.2401278497627 1186.3096344809571 349.18159608815023Q1185.416777331342 347.1230643265378 1184.5239201817271 344.99012780245744Q1183.6310630321118 342.83238969088774 1183.4574519196867 341.4186992039973L1183.4574519196867 341.4186992039973Q1183.4574519196867 340.15381824204263 1184.275904306834 339.2609610924276Q1185.0695551064919 338.3681039428125 1186.1360233685318 338.3681039428125L1186.1360233685318 338.3681039428125Q1193.2788805654523 338.7401277551521 1197.222332976252 338.9881436300452Q1201.1409837995625 339.2609610924276 1202.0338409491774 339.2609610924276L1202.0338409491774 339.2609610924276Q1202.9266980987927 339.2609610924276 1207.1181663844854 338.7401277551521Q1211.3096346701782 338.1944928303874 1218.6509045670127 337.3016356807724L1218.6509045670127 337.3016356807724Q1219.7173728290531 337.3016356807724 1220.610229978668 338.02088171796225Q1221.5030871282834 338.7401277551521 1221.5030871282834 339.9802071296175L1221.5030871282834 339.9802071296175Q1221.5030871282834 342.6587785784626 1221.5774918907514 346.4038182893479Q1221.6766982407084 350.1488580002332 1221.8503093531335 355.15877867307313L1221.8503093531335 355.15877867307313Q1222.0239204655586 360.5159215707634 1222.2223331654732 364.2609612816487Q1222.3959442778983 368.006000992534 1222.3959442778983 369.9901279916785L1222.3959442778983 369.9901279916785Q1222.3959442778983 371.57742959099414 1221.1310633159437 374.6280248521789Q1219.8909839414782 377.65381852587427 1219.8909839414782 379.4395328251044L1219.8909839414782 379.4395328251044Q1220.0645950539033 381.0516360119093 1221.7759045906655 383.90381857317954Q1223.4624125399387 386.75600113444983 1223.6360236523637 388.3681043212547L1223.6360236523637 388.3681043212547Q1224.0080474647034 401.76096156548033 1224.7024919144037 428.02584271665603L1224.7024919144037 428.02584271665603L1228.6459443252038 433.9038189516217Q1228.8195554376289 434.0774300640469 1228.8195554376289 434.4494538763865L1228.8195554376289 434.4494538763865Q1228.8195554376289 436.95441421280645 1225.9673728763582 436.756001512892L1225.9673728763582 436.756001512892Q1223.4624125399387 436.4087792880417 1220.8830474410506 436.4087792880417Q1218.2788807546735 436.4087792880417 1215.6003093058284 436.4087792880417L1215.6003093058284 436.4087792880417Q1203.1003092112178 436.4087792880417 1188.6409837049519 438.02088247484664L1188.6409837049519 438.02088247484664ZM1213.293761669323 382.4901280862891L1213.293761669323 382.4901280862891Q1213.293761669323 381.39885823675957 1213.293761669323 380.15877886229424Q1213.293761669323 378.9186994878289 1213.467372781748 377.65381852587427L1213.467372781748 377.65381852587427L1216.1459442305932 343.0060008033129Q1201.8602298367523 347.66869925130254 1200.7937615747123 347.4702865513881L1200.7937615747123 347.4702865513881Q1195.9574520142974 346.57742940177303 1195.9574520142974 352.3065961118029L1195.9574520142974 352.3065961118029Q1195.9574520142974 354.26592152345813 1196.6766980514872 355.70441359783786L1196.6766980514872 355.70441359783786Q1199.1816583879072 360.68953268318853 1199.975309187565 365.3274295436889Q1200.7937615747123 369.9901279916785 1200.7937615747123 373.908778814989L1200.7937615747123 373.908778814989Q1201.1409837995625 374.6280248521789 1206.1509044724025 377.1329851885988L1206.1509044724025 377.1329851885988Q1210.788801332903 379.4395328251044 1213.293761669323 382.4901280862891ZM1202.579475873942 432.11810465239165L1202.579475873942 432.11810465239165Q1206.6717378096778 432.11810465239165 1208.283840996483 430.50600146558673Q1209.8959441832876 428.91869986627114 1211.5080473700928 425.3472712678109L1211.5080473700928 425.3472712678109Q1212.9217378569833 422.1230648942011 1219.1717379042884 422.47028711905136L1219.1717379042884 422.47028711905136L1219.1717379042884 416.93953310893596Q1219.1717379042884 410.6895330616307 1218.7253093294808 404.53873936428266Q1218.2788807546735 398.3631440794453 1216.1459442305932 392.65877895690477L1216.1459442305932 392.65877895690477Q1215.4266981934034 401.93457267790546 1208.283840996483 401.93457267790546L1208.283840996483 401.93457267790546Q1206.6717378096778 401.93457267790546 1203.8195552484076 401.41373934063006Q1200.9673726871374 400.8681044158653 1199.900904425097 400.8681044158653L1199.900904425097 400.8681044158653Q1199.1816583879072 400.8681044158653 1198.4624123507174 401.24012822820487L1198.4624123507174 401.24012822820487L1196.1310631267224 423.1895331562413Q1195.2382059771076 432.11810465239165 1202.579475873942 432.11810465239165Z " fill="red" transform="matrix(0.71206547224933,0,0,0.71206547224933,0,40.498729695992736)"/></g></svg>